<svg width="18" height="18" viewBox="0 0 18 18" fill="none" xmlns="http://www.w3.org/2000/svg">
<path d="M8.16666 0.166626C12.3067 0.166626 15.6667 3.52663 15.6667 7.66663C15.6667 11.8066 12.3067 15.1666 8.16666 15.1666C4.02666 15.1666 0.666664 11.8066 0.666664 7.66663C0.666664 3.52663 4.02666 0.166626 8.16666 0.166626ZM8.16666 13.5C11.3892 13.5 14 10.8891 14 7.66663C14 4.44413 11.3892 1.83329 8.16666 1.83329C4.94416 1.83329 2.33333 4.44413 2.33333 7.66663C2.33333 10.8891 4.94416 13.5 8.16666 13.5ZM15.2375 13.5591L17.595 15.9158L16.4158 17.095L14.0592 14.7375L15.2375 13.5591Z" fill="white"/>
</svg>
