<svg width="25" height="25" viewBox="0 0 25 25" fill="none" xmlns="http://www.w3.org/2000/svg">
<path d="M24.6552 21.5903L24.6552 2.92362C24.6552 2.21638 24.3742 1.5381 23.8741 1.03801C23.374 0.537909 22.6957 0.256958 21.9885 0.256958L3.32182 0.256957C2.61457 0.256957 1.9363 0.537908 1.4362 1.03801C0.936102 1.5381 0.655151 2.21638 0.655151 2.92362L0.65515 21.5903C0.65515 23.0703 1.84182 24.257 3.32182 24.257L21.9885 24.257C22.6957 24.257 23.374 23.976 23.8741 23.4759C24.3742 22.9758 24.6552 22.2975 24.6552 21.5903ZM4.65515 9.20362L6.53515 7.31029L12.6552 13.4303L18.7752 7.31029L20.6552 9.20362L12.6552 17.2036L4.65515 9.20362Z" fill="white"/>
</svg>
