<svg width="25" height="25" viewBox="0 0 25 25" fill="none" xmlns="http://www.w3.org/2000/svg">
<path d="M0.65515 2.92362L0.655151 21.5903C0.655151 22.2975 0.936103 22.9758 1.4362 23.4759C1.9363 23.976 2.61457 24.257 3.32182 24.257L21.9885 24.257C22.6957 24.257 23.374 23.976 23.8741 23.4759C24.3742 22.9758 24.6552 22.2975 24.6552 21.5903L24.6552 2.92362C24.6552 1.44362 23.4685 0.256957 21.9885 0.256957L3.32182 0.256958C2.61457 0.256958 1.9363 0.537908 1.4362 1.03801C0.936102 1.5381 0.65515 2.21638 0.65515 2.92362ZM21.9885 2.92362L21.9885 21.5903L3.32182 21.5903L3.32182 2.92362L21.9885 2.92362ZM18.7752 17.2036L12.6552 11.0836L6.53515 17.2036L4.65515 15.3103L12.6552 7.31029L20.6552 15.3103L18.7752 17.2036Z" fill="white"/>
</svg>
